<mxfile host="app.diagrams.net" modified="2024-05-30T12:29:17.312Z" agent="Mozilla/5.0 (X11; Linux x86_64) AppleWebKit/537.36 (KHTML, like Gecko) Chrome/125.0.0.0 Safari/537.36" version="24.4.10" etag="0FLtcXnG6m-RZTv9ZgXZ" type="github">
  <diagram name="Page-1" id="JFznYduX9ETsTGd0Le7v">
    <mxGraphModel>
      <root>
        <mxCell id="0" />
        <mxCell id="1" parent="0" />
      </root>
    </mxGraphModel>
  </diagram>
</mxfile>
